<svg width="85" height="85" viewBox="0 0 85 85" fill="none" xmlns="http://www.w3.org/2000/svg">
<g id="Button Go back">
<path id="Vector" d="M42.5 85C65.9723 85 85 65.9723 85 42.5C85 19.0277 65.9723 0 42.5 0C19.0277 0 0 19.0277 0 42.5C0 65.9723 19.0277 85 42.5 85ZM20.2668 41.3582L37.6125 24.0125C38.2434 23.3816 39.2653 23.3816 39.8962 24.0125L45.6148 29.7311C46.2457 30.362 46.2457 31.3848 45.6148 32.0148L40.7877 36.8409H63.5904C64.4819 36.8409 65.2054 37.5643 65.2054 38.4559V46.5432C65.2054 47.4347 64.4819 48.1582 63.5904 48.1582H40.7868L45.6138 52.9852C46.2447 53.6161 46.2447 54.6389 45.6138 55.2689L39.8952 60.9875C39.2643 61.6184 38.2415 61.6184 37.6116 60.9875L20.2668 43.6418C19.6359 43.0109 19.6359 41.9881 20.2668 41.3582Z" fill="#FF5C00" fill-opacity="0.49"/>
</g>
</svg>
