<svg width="85" height="85" viewBox="0 0 85 85" fill="none" xmlns="http://www.w3.org/2000/svg">
<path id="Vector" d="M42.5 0C19.0277 0 0 19.0277 0 42.5C0 65.9723 19.0277 85 42.5 85C65.9723 85 85 65.9723 85 42.5C85 19.0277 65.9723 0 42.5 0ZM64.7332 43.6418L47.3875 60.9875C46.7566 61.6184 45.7347 61.6184 45.1038 60.9875L39.3852 55.2689C38.7543 54.638 38.7543 53.6152 39.3852 52.9852L44.2123 48.1591H21.4096C20.5181 48.1591 19.7946 47.4357 19.7946 46.5441V38.4568C19.7946 37.5653 20.5181 36.8418 21.4096 36.8418H44.2132L39.3862 32.0148C38.7553 31.3839 38.7553 30.3611 39.3862 29.7311L45.1048 24.0125C45.7357 23.3816 46.7585 23.3816 47.3884 24.0125L64.7332 41.3582C65.3641 41.9891 65.3641 43.0119 64.7332 43.6418Z" fill="#FF5C00" fill-opacity="0.49"/>
</svg>
